<svg viewBox="0 0 38 38" fill="none" xmlns="http://www.w3.org/2000/svg">
  <path
    d="M37.6395 11.3021C37.6185 9.72425 37.3231 8.16206 36.7666 6.68545C36.284 5.43993 35.5469 4.30878 34.6023 3.36426C33.6578 2.41975 32.5267 1.68264 31.2812 1.20003C29.8235 0.65286 28.2836 0.356994 26.727 0.325033C24.7228 0.235449 24.0874 0.210449 18.9999 0.210449C13.9124 0.210449 13.2603 0.210449 11.2707 0.325033C9.71482 0.357229 8.17563 0.653091 6.71865 1.20003C5.47294 1.6823 4.34161 2.41929 3.39705 3.36385C2.4525 4.30841 1.7155 5.43974 1.23324 6.68545C0.684967 8.14197 0.389742 9.68151 0.360319 11.2375C0.270736 13.2438 0.243652 13.8792 0.243652 18.9667C0.243652 24.0542 0.243652 24.7042 0.360319 26.6959C0.391569 28.2542 0.685319 29.7917 1.23324 31.2521C1.71631 32.4974 2.45385 33.6283 3.39873 34.5725C4.3436 35.5166 5.47504 36.2533 6.72074 36.7355C8.17372 37.3046 9.71318 37.6217 11.2728 37.6729C13.2791 37.7625 13.9145 37.7896 19.002 37.7896C24.0895 37.7896 24.7416 37.7896 26.7312 37.6729C28.2877 37.6423 29.8277 37.3471 31.2853 36.8C32.5305 36.3169 33.6614 35.5796 34.6058 34.6351C35.5503 33.6907 36.2876 32.5598 36.7707 31.3146C37.3187 29.8563 37.6124 28.3188 37.6437 26.7584C37.7332 24.7542 37.7603 24.1188 37.7603 19.0292C37.7562 13.9417 37.7562 13.2959 37.6395 11.3021ZM18.9874 28.5875C13.6666 28.5875 9.35615 24.2771 9.35615 18.9563C9.35615 13.6354 13.6666 9.32503 18.9874 9.32503C21.5418 9.32503 23.9915 10.3398 25.7977 12.146C27.6039 13.9522 28.6187 16.4019 28.6187 18.9563C28.6187 21.5106 27.6039 23.9604 25.7977 25.7666C23.9915 27.5728 21.5418 28.5875 18.9874 28.5875ZM29.002 11.2146C28.707 11.2149 28.4148 11.157 28.1422 11.0442C27.8696 10.9315 27.6219 10.766 27.4133 10.5574C27.2047 10.3488 27.0393 10.1012 26.9265 9.82855C26.8138 9.55595 26.7559 9.26379 26.7562 8.96878C26.7562 8.67399 26.8142 8.38209 26.927 8.10974C27.0398 7.83739 27.2052 7.58992 27.4136 7.38147C27.6221 7.17303 27.8696 7.00768 28.1419 6.89487C28.4143 6.78205 28.7062 6.72399 29.0009 6.72399C29.2957 6.72399 29.5876 6.78205 29.86 6.89487C30.1323 7.00768 30.3798 7.17303 30.5883 7.38147C30.7967 7.58992 30.9621 7.83739 31.0749 8.10974C31.1877 8.38209 31.2457 8.67399 31.2457 8.96878C31.2457 10.2104 30.2416 11.2146 29.002 11.2146Z"
    fill="hsla(180, 92%, 5%, 0.85)"
  />
  <path
    d="M18.9874 25.2125C22.4426 25.2125 25.2437 22.4115 25.2437 18.9563C25.2437 15.5011 22.4426 12.7 18.9874 12.7C15.5322 12.7 12.7312 15.5011 12.7312 18.9563C12.7312 22.4115 15.5322 25.2125 18.9874 25.2125Z"
    fill="hsla(180, 92%, 5%, 0.85)"
  />
</svg>