<svg width="22" height="22" viewBox="0 0 22 22" fill="none" xmlns="http://www.w3.org/2000/svg">
<path d="M2.20337 6.4723L11.0001 10.8701L19.7968 6.4723C19.7642 5.91179 19.5186 5.38494 19.1102 4.99965C18.7018 4.61436 18.1615 4.3998 17.6001 4.3999H4.40007C3.83861 4.3998 3.29836 4.61436 2.88996 4.99965C2.48157 5.38494 2.23593 5.91179 2.20337 6.4723Z" fill="#02C6C6"/>
<path d="M19.7999 8.92969L11 13.3297L2.19995 8.92969V15.3999C2.19995 15.9834 2.43174 16.5429 2.84432 16.9555C3.2569 17.3681 3.81647 17.5999 4.39995 17.5999H17.5999C18.1834 17.5999 18.743 17.3681 19.1556 16.9555C19.5682 16.5429 19.7999 15.9834 19.7999 15.3999V8.92969Z" fill="#02C6C6"/>
</svg>
