<svg width="22" height="22" viewBox="0 0 22 22" fill="none" xmlns="http://www.w3.org/2000/svg">
<path d="M2.19995 3.3002C2.19995 3.00846 2.31584 2.72867 2.52213 2.52238C2.72842 2.31609 3.00821 2.2002 3.29995 2.2002H5.66825C5.92863 2.20032 6.18052 2.29279 6.37912 2.46118C6.57772 2.62957 6.71015 2.86294 6.75285 3.1198L7.56685 7.99829C7.60574 8.23063 7.56902 8.46932 7.46209 8.67923C7.35516 8.88913 7.18366 9.05916 6.97285 9.1643L5.27005 10.0146C5.88067 11.5278 6.79007 12.9024 7.9439 14.0562C9.09774 15.2101 10.4723 16.1195 11.9855 16.7301L12.837 15.0273C12.942 14.8167 13.1119 14.6453 13.3216 14.5384C13.5312 14.4315 13.7697 14.3947 14.0019 14.4333L18.8804 15.2473C19.1372 15.29 19.3706 15.4224 19.539 15.621C19.7074 15.8196 19.7998 16.0715 19.7999 16.3319V18.7002C19.7999 18.9919 19.6841 19.2717 19.4778 19.478C19.2715 19.6843 18.9917 19.8002 18.6999 19.8002H16.5C8.60195 19.8002 2.19995 13.3982 2.19995 5.5002V3.3002Z" fill="#02C6C6"/>
</svg>
